STARTFONT 2.1
COMMENT
COMMENT Converted from OpenType font "Q:\font stuff\winfont\Bauhaus-Demi.otf" by "otf2bdf 3.0".
COMMENT
FONT -FreeType-Bauhaus-Medium-R-Normal--20-200-72-72-P-92-ISO10646-1
SIZE 20 72 72
FONTBOUNDINGBOX 23 26 -3 -6
STARTPROPERTIES 19
FOUNDRY "FreeType"
FAMILY_NAME "Bauhaus"
WEIGHT_NAME "Medium"
SLANT "R"
SETWIDTH_NAME "Normal"
ADD_STYLE_NAME ""
PIXEL_SIZE 14
POINT_SIZE 200
RESOLUTION_X 72
RESOLUTION_Y 72
SPACING "P"
AVERAGE_WIDTH 92
CHARSET_REGISTRY "ISO10646"
CHARSET_ENCODING "1"
FONT_ASCENT 19
FONT_DESCENT 4
COPYRIGHT "Copyright (c) 1989 Adobe Systems Incorporated.  All Rights Reserved.Bauhaus is a registered trademark of International Typeface Corporation."
_OTF_FONTFILE "Q:\font stuff\winfont\Bauhaus-Demi.otf"
_OTF_PSNAME "Bauhaus-Demi"
ENDPROPERTIES
CHARS 228
STARTCHAR 0020
ENCODING 32
SWIDTH 300 0
DWIDTH 6 0
BBX 0 0 0 0
BITMAP
ENDCHAR
STARTCHAR 0021
ENCODING 33
SWIDTH 300 0
DWIDTH 6 0
BBX 3 14 1 0
BITMAP
E0
E0
E0
E0
E0
E0
E0
E0
E0
E0
E0
E0
E0
E0
ENDCHAR
STARTCHAR 0022
ENCODING 34
SWIDTH 350 0
DWIDTH 7 0
BBX 5 6 1 8
BITMAP
D8
D8
D8
D8
D8
D8
ENDCHAR
STARTCHAR 0023
ENCODING 35
SWIDTH 550 0
DWIDTH 11 0
BBX 10 14 1 1
BITMAP
1980
1980
1900
1900
FFC0
3300
3300
3300
FFC0
FFC0
3200
2600
2600
2600
ENDCHAR
STARTCHAR 0024
ENCODING 36
SWIDTH 550 0
DWIDTH 11 0
BBX 7 17 2 0
BITMAP
18
18
7E
FE
E0
E0
F0
78
3C
0E
0E
FE
FE
FC
18
18
18
ENDCHAR
STARTCHAR 0025
ENCODING 37
SWIDTH 900 0
DWIDTH 18 0
BBX 15 14 1 0
BITMAP
3810
7C30
C660
C640
C6C0
7C80
3980
0338
037C
06C6
04C6
0CC6
187C
1838
ENDCHAR
STARTCHAR 0026
ENCODING 38
SWIDTH 800 0
DWIDTH 16 0
BBX 14 14 1 0
BITMAP
1FC0
3FC0
3FC0
3C00
3E30
7E70
F738
E3B8
E1F8
E0F8
F0F0
7FF8
3FFC
1F9C
ENDCHAR
STARTCHAR 0027
ENCODING 39
SWIDTH 200 0
DWIDTH 4 0
BBX 2 6 1 8
BITMAP
C0
C0
C0
C0
C0
C0
ENDCHAR
STARTCHAR 0028
ENCODING 40
SWIDTH 450 0
DWIDTH 9 0
BBX 6 19 2 -6
BITMAP
08
1C
38
30
60
60
E0
C0
C0
C0
C0
C0
E0
60
60
70
38
1C
18
ENDCHAR
STARTCHAR 0029
ENCODING 41
SWIDTH 450 0
DWIDTH 9 0
BBX 6 19 1 -3
BITMAP
60
E0
70
38
18
18
1C
0C
0C
0C
0C
0C
1C
18
18
30
70
E0
40
ENDCHAR
STARTCHAR 002A
ENCODING 42
SWIDTH 500 0
DWIDTH 10 0
BBX 7 7 1 6
BITMAP
10
54
FE
38
FE
D6
10
ENDCHAR
STARTCHAR 002B
ENCODING 43
SWIDTH 600 0
DWIDTH 12 0
BBX 10 10 1 0
BITMAP
0C00
0C00
0C00
0C00
FFC0
FFC0
0C00
0C00
0C00
0C00
ENDCHAR
STARTCHAR 002C
ENCODING 44
SWIDTH 300 0
DWIDTH 6 0
BBX 4 6 0 -4
BITMAP
70
60
60
E0
C0
C0
ENDCHAR
STARTCHAR 002D
ENCODING 45
SWIDTH 350 0
DWIDTH 7 0
BBX 5 2 1 3
BITMAP
F8
F8
ENDCHAR
STARTCHAR 002E
ENCODING 46
SWIDTH 300 0
DWIDTH 6 0
BBX 3 3 1 1
BITMAP
E0
E0
E0
ENDCHAR
STARTCHAR 002F
ENCODING 47
SWIDTH 300 0
DWIDTH 6 0
BBX 6 14 0 0
BITMAP
0C
1C
18
18
38
30
30
70
60
60
E0
C0
C0
C0
ENDCHAR
STARTCHAR 0030
ENCODING 48
SWIDTH 550 0
DWIDTH 11 0
BBX 9 14 1 0
BITMAP
3E00
7F00
FF80
E380
E380
E380
E380
E380
E380
E380
E380
FF80
7F00
3E00
ENDCHAR
STARTCHAR 0031
ENCODING 49
SWIDTH 550 0
DWIDTH 11 0
BBX 5 14 2 0
BITMAP
F8
F8
F8
38
38
38
38
38
38
38
38
38
38
38
ENDCHAR
STARTCHAR 0032
ENCODING 50
SWIDTH 550 0
DWIDTH 11 0
BBX 9 14 1 0
BITMAP
3E00
7F00
FF80
E380
E380
E380
6700
4F00
1C00
3800
7000
FF80
FF80
FF80
ENDCHAR
STARTCHAR 0033
ENCODING 51
SWIDTH 550 0
DWIDTH 11 0
BBX 9 14 1 0
BITMAP
FF00
FF00
FF00
0F00
1E00
3C00
7E00
7F00
0380
0380
0380
FF80
FF00
FE00
ENDCHAR
STARTCHAR 0034
ENCODING 52
SWIDTH 550 0
DWIDTH 11 0
BBX 10 14 0 0
BITMAP
0700
0E80
1D80
1D80
3B80
3380
7380
E380
FFC0
FFC0
7FC0
0380
0380
0380
ENDCHAR
STARTCHAR 0035
ENCODING 53
SWIDTH 550 0
DWIDTH 11 0
BBX 9 14 1 0
BITMAP
FF00
FF00
FF00
E000
FC00
FF00
FF00
0780
0380
0380
0380
FF80
FF00
FE00
ENDCHAR
STARTCHAR 0036
ENCODING 54
SWIDTH 550 0
DWIDTH 11 0
BBX 9 14 1 0
BITMAP
0E00
1C00
1C00
3800
3800
7600
7700
E780
E380
E380
E380
7F80
7F00
3E00
ENDCHAR
STARTCHAR 0037
ENCODING 55
SWIDTH 550 0
DWIDTH 11 0
BBX 9 14 1 0
BITMAP
FF00
FF80
FF80
0380
0700
0700
0700
0E00
0E00
1E00
1C00
1C00
3C00
3800
ENDCHAR
STARTCHAR 0038
ENCODING 56
SWIDTH 550 0
DWIDTH 11 0
BBX 9 14 1 0
BITMAP
3E00
7F00
F780
E380
E380
7F00
7F00
7780
E380
E380
E380
7F80
7F00
3E00
ENDCHAR
STARTCHAR 0039
ENCODING 57
SWIDTH 550 0
DWIDTH 11 0
BBX 9 14 1 0
BITMAP
3E00
7F00
FF80
E380
E380
E380
F380
7700
3700
0E00
0E00
1C00
1C00
3800
ENDCHAR
STARTCHAR 003A
ENCODING 58
SWIDTH 300 0
DWIDTH 6 0
BBX 3 9 1 0
BITMAP
E0
E0
E0
00
00
00
E0
E0
E0
ENDCHAR
STARTCHAR 003B
ENCODING 59
SWIDTH 300 0
DWIDTH 6 0
BBX 4 13 0 -4
BITMAP
70
70
70
00
00
00
00
70
60
60
60
E0
C0
ENDCHAR
STARTCHAR 003C
ENCODING 60
SWIDTH 600 0
DWIDTH 12 0
BBX 10 10 1 0
BITMAP
0040
03C0
0F80
3C00
F000
F000
3C00
0F80
03C0
0040
ENDCHAR
STARTCHAR 003D
ENCODING 61
SWIDTH 600 0
DWIDTH 12 0
BBX 10 6 1 2
BITMAP
FFC0
FFC0
0000
0000
FFC0
FFC0
ENDCHAR
STARTCHAR 003E
ENCODING 62
SWIDTH 600 0
DWIDTH 12 0
BBX 10 10 1 0
BITMAP
8000
F000
7C00
0F00
03C0
03C0
0F00
7C00
F000
8000
ENDCHAR
STARTCHAR 003F
ENCODING 63
SWIDTH 500 0
DWIDTH 10 0
BBX 10 14 0 0
BITMAP
1F00
7F80
7FC0
E1C0
01C0
03C0
1F80
1F00
1C00
1C00
0000
1C00
1C00
1C00
ENDCHAR
STARTCHAR 0040
ENCODING 64
SWIDTH 800 0
DWIDTH 16 0
BBX 14 14 1 0
BITMAP
07C0
1FF0
3038
67FC
EFEC
DCEC
D84C
D8CC
DCD8
FFF8
6FE0
3018
1FF0
07C0
ENDCHAR
STARTCHAR 0041
ENCODING 65
SWIDTH 600 0
DWIDTH 12 0
BBX 10 14 1 0
BITMAP
1E00
7F80
7F80
E1C0
E1C0
E1C0
EFC0
EFC0
EFC0
E1C0
E1C0
E1C0
E1C0
E1C0
ENDCHAR
STARTCHAR 0042
ENCODING 66
SWIDTH 550 0
DWIDTH 11 0
BBX 9 14 1 0
BITMAP
3E00
7F00
FF80
E380
E380
EF00
EF00
EF80
E380
E380
E380
EF80
EF00
EE00
ENDCHAR
STARTCHAR 0043
ENCODING 67
SWIDTH 500 0
DWIDTH 10 0
BBX 9 14 1 0
BITMAP
0F80
3F80
7F80
7800
F000
E000
E000
E000
E000
F000
7800
7F80
3F80
0F80
ENDCHAR
STARTCHAR 0044
ENCODING 68
SWIDTH 650 0
DWIDTH 13 0
BBX 12 14 1 0
BITMAP
FF00
FF80
FFC0
E1E0
E0E0
E070
E070
E070
E070
E0F0
E1E0
EFC0
EF80
EF00
ENDCHAR
STARTCHAR 0045
ENCODING 69
SWIDTH 500 0
DWIDTH 10 0
BBX 8 14 1 0
BITMAP
0F
3F
7F
70
E0
FF
FF
FF
E0
E0
70
7F
3F
0F
ENDCHAR
STARTCHAR 0046
ENCODING 70
SWIDTH 450 0
DWIDTH 9 0
BBX 7 14 1 0
BITMAP
3E
7E
FE
E0
E0
E0
FE
FE
FE
E0
E0
E0
E0
E0
ENDCHAR
STARTCHAR 0047
ENCODING 71
SWIDTH 800 0
DWIDTH 16 0
BBX 14 14 1 0
BITMAP
0FC0
1FF0
3FF0
7820
F000
E1FC
E1FC
E1FC
E01C
F03C
7878
3FF0
1FE0
0FC0
ENDCHAR
STARTCHAR 0048
ENCODING 72
SWIDTH 600 0
DWIDTH 12 0
BBX 10 14 1 0
BITMAP
E1C0
E1C0
E1C0
E1C0
E1C0
FFC0
FFC0
FFC0
E1C0
E1C0
E1C0
E1C0
E1C0
E1C0
ENDCHAR
STARTCHAR 0049
ENCODING 73
SWIDTH 300 0
DWIDTH 6 0
BBX 3 14 1 0
BITMAP
E0
E0
E0
E0
E0
E0
E0
E0
E0
E0
E0
E0
E0
E0
ENDCHAR
STARTCHAR 004A
ENCODING 74
SWIDTH 350 0
DWIDTH 7 0
BBX 5 14 1 0
BITMAP
38
38
38
38
38
38
38
38
38
38
38
F8
F0
E0
ENDCHAR
STARTCHAR 004B
ENCODING 75
SWIDTH 550 0
DWIDTH 11 0
BBX 9 14 1 0
BITMAP
E380
E380
E700
E700
EE00
FE00
FF00
FF80
E380
E380
E380
E380
E380
E380
ENDCHAR
STARTCHAR 004C
ENCODING 76
SWIDTH 400 0
DWIDTH 8 0
BBX 7 14 1 0
BITMAP
E0
E0
E0
E0
E0
E0
E0
E0
E0
E0
E0
FE
7E
3E
ENDCHAR
STARTCHAR 004D
ENCODING 77
SWIDTH 850 0
DWIDTH 17 0
BBX 16 14 0 0
BITMAP
1C1C
3E3E
3E3E
3E7E
367E
777E
776E
736E
73E7
73C7
73C7
71C7
71C7
F187
ENDCHAR
STARTCHAR 004E
ENCODING 78
SWIDTH 650 0
DWIDTH 13 0
BBX 11 14 1 0
BITMAP
70E0
F0E0
F8E0
F8E0
FCE0
ECE0
EEE0
E6E0
E7E0
E3E0
E3E0
E1E0
E1E0
E0E0
ENDCHAR
STARTCHAR 004F
ENCODING 79
SWIDTH 800 0
DWIDTH 16 0
BBX 14 14 1 0
BITMAP
0FC0
1FE0
3FF0
7878
F03C
E01C
E01C
E01C
E01C
F03C
7878
3FF0
1FE0
0FC0
ENDCHAR
STARTCHAR 0050
ENCODING 80
SWIDTH 550 0
DWIDTH 11 0
BBX 10 14 1 0
BITMAP
1E00
7F80
7F80
E1C0
E1C0
E1C0
EF80
EF80
EE00
E000
E000
E000
E000
E000
ENDCHAR
STARTCHAR 0051
ENCODING 81
SWIDTH 800 0
DWIDTH 16 0
BBX 14 16 1 -2
BITMAP
0FC0
1FE0
3FF0
7878
F03C
E01C
E01C
E01C
E01C
F3BC
7BB8
7BF8
3BF0
0BC0
0380
0380
ENDCHAR
STARTCHAR 0052
ENCODING 82
SWIDTH 550 0
DWIDTH 11 0
BBX 9 14 1 0
BITMAP
3E00
7F00
FF80
E380
E380
EF00
EF00
EF80
E380
E380
E380
E380
E380
E380
ENDCHAR
STARTCHAR 0053
ENCODING 83
SWIDTH 500 0
DWIDTH 10 0
BBX 8 14 1 0
BITMAP
3F
7F
FF
E0
E0
F8
7C
3E
0F
07
07
FF
FE
FC
ENDCHAR
STARTCHAR 0054
ENCODING 84
SWIDTH 450 0
DWIDTH 9 0
BBX 9 14 0 0
BITMAP
FF80
FF80
FF80
1C00
1C00
1C00
1C00
1C00
1C00
1C00
1C00
1C00
1C00
1C00
ENDCHAR
STARTCHAR 0055
ENCODING 85
SWIDTH 600 0
DWIDTH 12 0
BBX 10 14 1 0
BITMAP
E1C0
E1C0
E1C0
E1C0
E1C0
E1C0
E1C0
E1C0
E1C0
E1C0
F1C0
FFC0
7F80
3F00
ENDCHAR
STARTCHAR 0056
ENCODING 86
SWIDTH 550 0
DWIDTH 11 0
BBX 12 14 0 0
BITMAP
E070
F0F0
70E0
70E0
71E0
79C0
39C0
39C0
3BC0
3F80
1F80
1F80
1F00
0F00
ENDCHAR
STARTCHAR 0057
ENCODING 87
SWIDTH 900 0
DWIDTH 18 0
BBX 16 14 1 0
BITMAP
E387
E387
E387
E387
E387
E387
E387
E387
E387
E387
E387
FFFF
7EFE
3C7C
ENDCHAR
STARTCHAR 0058
ENCODING 88
SWIDTH 500 0
DWIDTH 10 0
BBX 9 14 0 0
BITMAP
C180
E380
F780
3E00
3E00
1C00
1C00
1C00
1C00
3E00
7F00
F780
E380
C180
ENDCHAR
STARTCHAR 0059
ENCODING 89
SWIDTH 550 0
DWIDTH 11 0
BBX 9 14 1 0
BITMAP
E380
E380
E380
E380
E380
E380
FF80
7F00
3E00
1C00
1C00
1C00
1C00
1C00
ENDCHAR
STARTCHAR 005A
ENCODING 90
SWIDTH 500 0
DWIDTH 10 0
BBX 9 14 0 0
BITMAP
7F80
7F80
7F80
0700
0F00
0E00
1C00
3C00
3800
7800
7000
FF80
FF80
FF80
ENDCHAR
STARTCHAR 005B
ENCODING 91
SWIDTH 350 0
DWIDTH 7 0
BBX 4 18 2 -4
BITMAP
F0
C0
C0
C0
C0
C0
C0
C0
C0
C0
C0
C0
C0
C0
C0
C0
C0
F0
ENDCHAR
STARTCHAR 005C
ENCODING 92
SWIDTH 300 0
DWIDTH 6 0
BBX 8 14 -1 0
BITMAP
C0
60
60
70
30
30
18
18
0C
0C
0E
06
06
03
ENDCHAR
STARTCHAR 005D
ENCODING 93
SWIDTH 350 0
DWIDTH 7 0
BBX 4 18 1 -4
BITMAP
F0
30
30
30
30
30
30
30
30
30
30
30
30
30
30
30
30
F0
ENDCHAR
STARTCHAR 005E
ENCODING 94
SWIDTH 600 0
DWIDTH 12 0
BBX 9 8 1 6
BITMAP
1C00
1C00
3600
3600
6700
6300
E300
C180
ENDCHAR
STARTCHAR 005F
ENCODING 95
SWIDTH 500 0
DWIDTH 10 0
BBX 10 1 0 -2
BITMAP
FFC0
ENDCHAR
STARTCHAR 0060
ENCODING 96
SWIDTH 200 0
DWIDTH 4 0
BBX 4 3 0 11
BITMAP
C0
60
30
ENDCHAR
STARTCHAR 0061
ENCODING 97
SWIDTH 550 0
DWIDTH 11 0
BBX 10 10 1 0
BITMAP
1E00
7F80
7F80
E1C0
E1C0
E1C0
E1C0
7DC0
7DC0
3DC0
ENDCHAR
STARTCHAR 0062
ENCODING 98
SWIDTH 550 0
DWIDTH 11 0
BBX 10 14 1 0
BITMAP
E000
E000
E000
E000
EE00
EF80
EF80
E1C0
E1C0
E1C0
E1C0
7F80
7F80
1E00
ENDCHAR
STARTCHAR 0063
ENCODING 99
SWIDTH 400 0
DWIDTH 8 0
BBX 7 10 1 0
BITMAP
1E
7E
7E
E0
E0
E0
E0
7E
7E
1E
ENDCHAR
STARTCHAR 0064
ENCODING 100
SWIDTH 550 0
DWIDTH 11 0
BBX 10 14 1 0
BITMAP
01C0
01C0
01C0
01C0
1DC0
7DC0
7DC0
E1C0
E1C0
E1C0
E1C0
7F80
7F80
1E00
ENDCHAR
STARTCHAR 0065
ENCODING 101
SWIDTH 550 0
DWIDTH 11 0
BBX 10 10 0 0
BITMAP
1F00
3F80
7FC0
E380
EF00
EC80
F0C0
7FC0
3F80
1F00
ENDCHAR
STARTCHAR 0066
ENCODING 102
SWIDTH 300 0
DWIDTH 6 0
BBX 5 14 1 0
BITMAP
38
78
F8
E0
F8
F8
F8
E0
E0
E0
E0
E0
E0
E0
ENDCHAR
STARTCHAR 0067
ENCODING 103
SWIDTH 550 0
DWIDTH 11 0
BBX 9 14 1 -4
BITMAP
3E00
7F00
7F80
E380
E380
E380
E380
7F80
7F80
3F80
0380
7F80
7F00
7E00
ENDCHAR
STARTCHAR 0068
ENCODING 104
SWIDTH 500 0
DWIDTH 10 0
BBX 8 14 1 0
BITMAP
E0
E0
E0
E0
FE
FF
FF
E7
E7
E7
E7
E7
E7
E7
ENDCHAR
STARTCHAR 0069
ENCODING 105
SWIDTH 200 0
DWIDTH 4 0
BBX 3 14 1 0
BITMAP
E0
E0
E0
00
E0
E0
E0
E0
E0
E0
E0
E0
E0
E0
ENDCHAR
STARTCHAR 006A
ENCODING 106
SWIDTH 200 0
DWIDTH 4 0
BBX 5 18 -1 -4
BITMAP
38
38
38
00
38
38
38
38
38
38
38
38
38
38
38
F8
F8
F0
ENDCHAR
STARTCHAR 006B
ENCODING 107
SWIDTH 500 0
DWIDTH 10 0
BBX 8 14 1 0
BITMAP
E0
E0
E0
E0
E7
E6
EE
FC
FE
FF
E7
E7
E7
E7
ENDCHAR
STARTCHAR 006C
ENCODING 108
SWIDTH 200 0
DWIDTH 4 0
BBX 3 14 1 0
BITMAP
E0
E0
E0
E0
E0
E0
E0
E0
E0
E0
E0
E0
E0
E0
ENDCHAR
STARTCHAR 006D
ENCODING 109
SWIDTH 800 0
DWIDTH 16 0
BBX 14 10 1 0
BITMAP
38F0
FFF8
FFFC
E71C
E71C
E71C
E71C
E71C
E71C
E71C
ENDCHAR
STARTCHAR 006E
ENCODING 110
SWIDTH 500 0
DWIDTH 10 0
BBX 8 10 1 0
BITMAP
3C
FF
FF
E7
E7
E7
E7
E7
E7
E7
ENDCHAR
STARTCHAR 006F
ENCODING 111
SWIDTH 550 0
DWIDTH 11 0
BBX 10 10 1 0
BITMAP
1E00
7F80
7F80
E1C0
E1C0
E1C0
E1C0
7F80
7F80
1E00
ENDCHAR
STARTCHAR 0070
ENCODING 112
SWIDTH 550 0
DWIDTH 11 0
BBX 10 14 1 -4
BITMAP
1E00
7F80
7F80
E1C0
E1C0
E1C0
E1C0
EF80
EF80
EE00
E000
E000
E000
E000
ENDCHAR
STARTCHAR 0071
ENCODING 113
SWIDTH 550 0
DWIDTH 11 0
BBX 10 14 1 -4
BITMAP
1E00
7F80
7F80
E1C0
E1C0
E1C0
E1C0
7DC0
7DC0
1DC0
01C0
01C0
01C0
01C0
ENDCHAR
STARTCHAR 0072
ENCODING 114
SWIDTH 350 0
DWIDTH 7 0
BBX 6 10 1 0
BITMAP
EC
FC
FC
E0
E0
E0
E0
E0
E0
E0
ENDCHAR
STARTCHAR 0073
ENCODING 115
SWIDTH 400 0
DWIDTH 8 0
BBX 7 10 0 0
BITMAP
7E
FE
E0
F0
78
3E
0E
0E
FE
FC
ENDCHAR
STARTCHAR 0074
ENCODING 116
SWIDTH 300 0
DWIDTH 6 0
BBX 5 13 1 0
BITMAP
E0
E0
E0
F8
F8
F8
E0
E0
E0
E0
F8
F8
78
ENDCHAR
STARTCHAR 0075
ENCODING 117
SWIDTH 500 0
DWIDTH 10 0
BBX 8 10 1 0
BITMAP
E7
E7
E7
E7
E7
E7
E7
FF
FF
3C
ENDCHAR
STARTCHAR 0076
ENCODING 118
SWIDTH 450 0
DWIDTH 9 0
BBX 9 10 0 0
BITMAP
E380
E380
6700
7700
7700
3600
3E00
3E00
1C00
1C00
ENDCHAR
STARTCHAR 0077
ENCODING 119
SWIDTH 800 0
DWIDTH 16 0
BBX 14 10 1 0
BITMAP
E71C
E71C
E71C
E71C
E71C
E71C
E71C
FFFC
7DF8
38F0
ENDCHAR
STARTCHAR 0078
ENCODING 120
SWIDTH 400 0
DWIDTH 8 0
BBX 8 10 0 0
BITMAP
E7
FF
7E
38
18
18
18
7E
FF
E7
ENDCHAR
STARTCHAR 0079
ENCODING 121
SWIDTH 500 0
DWIDTH 10 0
BBX 8 14 1 -4
BITMAP
E7
E7
E7
E7
E7
E7
E7
FF
7F
3E
1C
1C
1C
1C
ENDCHAR
STARTCHAR 007A
ENCODING 122
SWIDTH 450 0
DWIDTH 9 0
BBX 8 10 0 0
BITMAP
7F
7F
7F
0E
1C
38
78
FF
FF
FF
ENDCHAR
STARTCHAR 007B
ENCODING 123
SWIDTH 450 0
DWIDTH 9 0
BBX 6 18 0 -4
BITMAP
1C
3C
30
30
30
30
30
30
E0
E0
30
30
30
30
30
30
3C
1C
ENDCHAR
STARTCHAR 007C
ENCODING 124
SWIDTH 200 0
DWIDTH 4 0
BBX 2 14 1 0
BITMAP
C0
C0
C0
C0
C0
C0
C0
C0
C0
C0
C0
C0
C0
C0
ENDCHAR
STARTCHAR 007D
ENCODING 125
SWIDTH 450 0
DWIDTH 9 0
BBX 6 18 3 -4
BITMAP
E0
F0
30
30
30
30
30
30
1C
1C
30
30
30
30
30
30
F0
E0
ENDCHAR
STARTCHAR 007E
ENCODING 126
SWIDTH 600 0
DWIDTH 12 0
BBX 9 4 1 3
BITMAP
7080
FF80
CF80
0700
ENDCHAR
STARTCHAR 00A1
ENCODING 161
SWIDTH 300 0
DWIDTH 6 0
BBX 3 14 1 -4
BITMAP
E0
E0
E0
E0
E0
E0
E0
E0
E0
E0
E0
E0
E0
E0
ENDCHAR
STARTCHAR 00A2
ENCODING 162
SWIDTH 550 0
DWIDTH 11 0
BBX 6 14 1 0
BITMAP
18
18
18
3C
7C
E0
C0
C0
E0
7C
3C
18
18
18
ENDCHAR
STARTCHAR 00A3
ENCODING 163
SWIDTH 550 0
DWIDTH 11 0
BBX 12 14 0 0
BITMAP
0F80
1F80
3F80
3800
3800
7E00
7E00
7E00
3870
3870
3870
FFE0
FFE0
FF80
ENDCHAR
STARTCHAR 00A4
ENCODING 164
SWIDTH 550 0
DWIDTH 11 0
BBX 9 10 1 3
BITMAP
FF80
FF80
E380
C180
C180
C180
C180
6380
FF80
BC80
ENDCHAR
STARTCHAR 00A5
ENCODING 165
SWIDTH 550 0
DWIDTH 11 0
BBX 9 14 1 0
BITMAP
C180
F380
F780
3E00
1C00
7F00
7F00
1C00
7F00
7F00
1C00
1C00
1C00
1C00
ENDCHAR
STARTCHAR 00A6
ENCODING 166
SWIDTH 200 0
DWIDTH 4 0
BBX 2 14 1 0
BITMAP
C0
C0
C0
C0
C0
C0
00
00
C0
C0
C0
C0
C0
C0
ENDCHAR
STARTCHAR 00A7
ENCODING 167
SWIDTH 500 0
DWIDTH 10 0
BBX 8 16 1 -2
BITMAP
3C
7E
64
70
78
DC
CE
E7
73
3F
1E
0C
06
26
7E
3C
ENDCHAR
STARTCHAR 00A8
ENCODING 168
SWIDTH 200 0
DWIDTH 4 0
BBX 7 3 -1 11
BITMAP
EE
EE
CC
ENDCHAR
STARTCHAR 00A9
ENCODING 169
SWIDTH 800 0
DWIDTH 16 0
BBX 14 14 1 0
BITMAP
0FC0
3FF0
77B8
6FD8
FC7C
D80C
D80C
D80C
DC6C
EFDC
6798
7038
3FF0
0FC0
ENDCHAR
STARTCHAR 00AA
ENCODING 170
SWIDTH 350 0
DWIDTH 7 0
BBX 7 5 0 9
BITMAP
7C
FE
C6
C6
76
ENDCHAR
STARTCHAR 00AB
ENCODING 171
SWIDTH 500 0
DWIDTH 10 0
BBX 9 6 1 2
BITMAP
3300
6700
CE00
CE00
6700
3B80
ENDCHAR
STARTCHAR 00AC
ENCODING 172
SWIDTH 600 0
DWIDTH 12 0
BBX 10 6 1 2
BITMAP
FFC0
FFC0
00C0
00C0
00C0
00C0
ENDCHAR
STARTCHAR 00AE
ENCODING 174
SWIDTH 800 0
DWIDTH 16 0
BBX 14 14 1 0
BITMAP
0FC0
3FF0
7038
6F98
ECDC
CCCC
CFCC
CD0C
CD8C
EC9C
6CD8
7038
3FF0
0FC0
ENDCHAR
STARTCHAR 00AF
ENCODING 175
SWIDTH 200 0
DWIDTH 4 0
BBX 7 2 -1 12
BITMAP
FE
FE
ENDCHAR
STARTCHAR 00B0
ENCODING 176
SWIDTH 400 0
DWIDTH 8 0
BBX 5 5 1 8
BITMAP
70
D8
88
88
78
ENDCHAR
STARTCHAR 00B1
ENCODING 177
SWIDTH 600 0
DWIDTH 12 0
BBX 10 10 1 0
BITMAP
0C00
0C00
0C00
FFC0
FFC0
0C00
0C00
0000
FFC0
FFC0
ENDCHAR
STARTCHAR 00B2
ENCODING 178
SWIDTH 350 0
DWIDTH 7 0
BBX 6 8 0 6
BITMAP
78
FC
CC
DC
38
60
FC
FC
ENDCHAR
STARTCHAR 00B3
ENCODING 179
SWIDTH 350 0
DWIDTH 7 0
BBX 6 8 0 6
BITMAP
7C
7C
18
78
0C
0C
FC
F8
ENDCHAR
STARTCHAR 00B4
ENCODING 180
SWIDTH 200 0
DWIDTH 4 0
BBX 4 3 1 11
BITMAP
30
60
C0
ENDCHAR
STARTCHAR 00B5
ENCODING 181
SWIDTH 500 0
DWIDTH 10 0
BBX 8 14 1 -4
BITMAP
E7
E7
E7
E7
E7
E7
E7
FF
FF
FC
E0
E0
E0
E0
ENDCHAR
STARTCHAR 00B6
ENCODING 182
SWIDTH 600 0
DWIDTH 12 0
BBX 11 18 0 -5
BITMAP
3FE0
7FE0
7E60
FE60
FE60
7E60
3E60
0660
0660
0660
0660
0660
0660
0660
0660
0660
0660
0660
ENDCHAR
STARTCHAR 00B7
ENCODING 183
SWIDTH 300 0
DWIDTH 6 0
BBX 3 3 1 3
BITMAP
E0
E0
E0
ENDCHAR
STARTCHAR 00B8
ENCODING 184
SWIDTH 200 0
DWIDTH 4 0
BBX 5 4 0 -3
BITMAP
20
70
18
F0
ENDCHAR
STARTCHAR 00B9
ENCODING 185
SWIDTH 350 0
DWIDTH 7 0
BBX 3 8 2 6
BITMAP
E0
E0
60
60
60
60
60
60
ENDCHAR
STARTCHAR 00BA
ENCODING 186
SWIDTH 350 0
DWIDTH 7 0
BBX 7 5 0 9
BITMAP
7C
FE
C6
C6
7C
ENDCHAR
STARTCHAR 00BB
ENCODING 187
SWIDTH 500 0
DWIDTH 10 0
BBX 8 6 1 2
BITMAP
EE
7F
3F
3F
7F
E6
ENDCHAR
STARTCHAR 00BC
ENCODING 188
SWIDTH 850 0
DWIDTH 17 0
BBX 14 14 2 0
BITMAP
E060
E0C0
60C0
6180
6180
6330
6268
6678
04D8
0D98
19FC
19FC
3018
3018
ENDCHAR
STARTCHAR 00BD
ENCODING 189
SWIDTH 850 0
DWIDTH 17 0
BBX 14 14 2 0
BITMAP
E040
E0C0
6080
6180
6300
6378
66FC
64CC
0CCC
0858
1830
1060
30FC
60FC
ENDCHAR
STARTCHAR 00BE
ENCODING 190
SWIDTH 850 0
DWIDTH 17 0
BBX 16 14 0 0
BITMAP
7C18
7C18
1830
7830
0C60
0C4C
FCDA
F9BE
01B6
0366
027F
067F
0C06
0C06
ENDCHAR
STARTCHAR 00BF
ENCODING 191
SWIDTH 500 0
DWIDTH 10 0
BBX 10 14 0 -4
BITMAP
0E00
0E00
0E00
0000
0E00
0E00
3E00
7E00
F000
E000
E3C0
FF80
7F80
3E00
ENDCHAR
STARTCHAR 00C0
ENCODING 192
SWIDTH 600 0
DWIDTH 12 0
BBX 10 18 1 0
BITMAP
3800
1C00
0E00
0000
1E00
7F80
7F80
E1C0
E1C0
E1C0
EFC0
EFC0
EFC0
E1C0
E1C0
E1C0
E1C0
E1C0
ENDCHAR
STARTCHAR 00C1
ENCODING 193
SWIDTH 600 0
DWIDTH 12 0
BBX 10 18 1 0
BITMAP
0F00
0E00
1800
0000
1E00
7F80
7F80
E1C0
E1C0
E1C0
FFC0
FFC0
FFC0
E1C0
E1C0
E1C0
E1C0
E1C0
ENDCHAR
STARTCHAR 00C2
ENCODING 194
SWIDTH 600 0
DWIDTH 12 0
BBX 9 18 1 0
BITMAP
1C00
3600
7600
0000
3E00
7F00
7F00
E380
E380
E380
EF80
EF80
EF80
E380
E380
E380
E380
E380
ENDCHAR
STARTCHAR 00C3
ENCODING 195
SWIDTH 600 0
DWIDTH 12 0
BBX 9 18 1 0
BITMAP
3B00
7E00
6600
0000
3E00
7F00
7F00
E380
E380
E380
EF80
EF80
EF80
E380
E380
E380
E380
E380
ENDCHAR
STARTCHAR 00C4
ENCODING 196
SWIDTH 600 0
DWIDTH 12 0
BBX 10 18 1 0
BITMAP
3B80
3B80
3300
0000
1E00
7F80
7F80
E1C0
E1C0
E1C0
EFC0
EFC0
EFC0
E1C0
E1C0
E1C0
E1C0
E1C0
ENDCHAR
STARTCHAR 00C5
ENCODING 197
SWIDTH 600 0
DWIDTH 12 0
BBX 10 20 1 0
BITMAP
0C00
1200
1200
1200
0C00
0000
1E00
7F80
7F80
E1C0
E1C0
E1C0
EFC0
EFC0
EFC0
E1C0
E1C0
E1C0
E1C0
E1C0
ENDCHAR
STARTCHAR 00C6
ENCODING 198
SWIDTH 900 0
DWIDTH 18 0
BBX 16 14 1 0
BITMAP
1E1F
7FBF
7FFF
E1E0
E1C0
EFFF
EFFF
EFFF
E1C0
E1E0
E1F0
E1FF
E1FF
E1DF
ENDCHAR
STARTCHAR 00C7
ENCODING 199
SWIDTH 500 0
DWIDTH 10 0
BBX 9 18 1 -4
BITMAP
0F80
3F80
7F80
7800
F000
E000
E000
E000
E000
F000
7800
7F80
3F80
0F80
0400
0E00
0300
1E00
ENDCHAR
STARTCHAR 00C8
ENCODING 200
SWIDTH 500 0
DWIDTH 10 0
BBX 8 18 1 0
BITMAP
18
0C
06
00
0F
3F
7F
70
E0
FF
FF
FF
E0
F0
70
7F
3F
0F
ENDCHAR
STARTCHAR 00C9
ENCODING 201
SWIDTH 500 0
DWIDTH 10 0
BBX 8 18 1 0
BITMAP
07
0E
1C
00
0F
3F
7F
70
E0
FF
FF
FF
E0
E0
70
7F
3F
0F
ENDCHAR
STARTCHAR 00CA
ENCODING 202
SWIDTH 500 0
DWIDTH 10 0
BBX 9 18 1 0
BITMAP
0E00
1F00
3380
0000
0F00
3F00
7F00
7000
E000
FF00
FF00
FF00
E000
F000
7800
7F00
3F00
0F00
ENDCHAR
STARTCHAR 00CB
ENCODING 203
SWIDTH 500 0
DWIDTH 10 0
BBX 8 18 1 0
BITMAP
3B
3B
33
00
0F
3F
7F
70
E0
FF
FF
FF
E0
F0
78
7F
3F
0F
ENDCHAR
STARTCHAR 00CC
ENCODING 204
SWIDTH 300 0
DWIDTH 6 0
BBX 4 18 1 0
BITMAP
E0
60
30
00
70
70
70
70
70
70
70
70
70
70
70
70
70
70
ENDCHAR
STARTCHAR 00CD
ENCODING 205
SWIDTH 300 0
DWIDTH 6 0
BBX 4 18 1 0
BITMAP
70
60
C0
00
E0
E0
E0
E0
E0
E0
E0
E0
E0
E0
E0
E0
E0
E0
ENDCHAR
STARTCHAR 00CE
ENCODING 206
SWIDTH 300 0
DWIDTH 6 0
BBX 7 18 -1 0
BITMAP
38
6C
EE
00
38
38
38
38
38
38
38
38
38
38
38
38
38
38
ENDCHAR
STARTCHAR 00CF
ENCODING 207
SWIDTH 300 0
DWIDTH 6 0
BBX 7 18 -1 0
BITMAP
EE
EE
6C
00
38
38
38
38
38
38
38
38
38
38
38
38
38
38
ENDCHAR
STARTCHAR 00D0
ENCODING 208
SWIDTH 650 0
DWIDTH 13 0
BBX 13 14 0 0
BITMAP
7F80
7FC0
7FE0
70F0
7070
FC38
FC38
FC38
7038
7078
70F0
77E0
77C0
7780
ENDCHAR
STARTCHAR 00D1
ENCODING 209
SWIDTH 650 0
DWIDTH 13 0
BBX 11 18 1 0
BITMAP
1C80
3F80
2300
0000
60E0
F0E0
F8E0
F8E0
FCE0
ECE0
EEE0
E6E0
E7E0
E3E0
E3E0
E1E0
E1E0
E0E0
ENDCHAR
STARTCHAR 00D2
ENCODING 210
SWIDTH 800 0
DWIDTH 16 0
BBX 14 18 1 0
BITMAP
0600
0300
0180
0000
0FC0
1FE0
3FF0
7878
F03C
E01C
E01C
E01C
E01C
F03C
7878
3FF0
1FE0
0FC0
ENDCHAR
STARTCHAR 00D3
ENCODING 211
SWIDTH 800 0
DWIDTH 16 0
BBX 14 18 1 0
BITMAP
01C0
0380
0700
0000
0FC0
1FE0
3FF0
7878
F03C
E01C
E01C
E01C
E01C
F03C
7878
3FF0
1FE0
0FC0
ENDCHAR
STARTCHAR 00D4
ENCODING 212
SWIDTH 800 0
DWIDTH 16 0
BBX 14 18 1 0
BITMAP
0700
0D80
1DC0
0000
0FC0
1FE0
3FF0
7878
F03C
E01C
E01C
E01C
E01C
F03C
7878
3FF0
1FE0
0FC0
ENDCHAR
STARTCHAR 00D5
ENCODING 213
SWIDTH 800 0
DWIDTH 16 0
BBX 14 18 1 0
BITMAP
0E40
1FC0
1180
0000
0FC0
1FE0
3FF0
7878
F03C
E01C
E01C
E01C
E01C
F03C
7878
3FF0
1FE0
0FC0
ENDCHAR
STARTCHAR 00D6
ENCODING 214
SWIDTH 800 0
DWIDTH 16 0
BBX 14 18 1 0
BITMAP
1DC0
1DC0
0CC0
0000
0FC0
1FE0
3FF0
7878
F03C
E01C
E01C
E01C
E01C
F03C
7878
3FF0
1FE0
0FC0
ENDCHAR
STARTCHAR 00D7
ENCODING 215
SWIDTH 600 0
DWIDTH 12 0
BBX 10 10 1 0
BITMAP
4080
E1C0
7380
3F00
1E00
1E00
3F00
7380
E1C0
4080
ENDCHAR
STARTCHAR 00D8
ENCODING 216
SWIDTH 800 0
DWIDTH 16 0
BBX 14 14 1 0
BITMAP
0FCC
1FF8
3FF0
7078
F0FC
E19C
E31C
E71C
EE1C
7C3C
7878
3FF0
7FE0
CFC0
ENDCHAR
STARTCHAR 00D9
ENCODING 217
SWIDTH 600 0
DWIDTH 12 0
BBX 10 18 1 0
BITMAP
3800
1C00
0E00
0000
E1C0
E1C0
E1C0
E1C0
E1C0
E1C0
E1C0
E1C0
E1C0
E1C0
F1C0
FFC0
7F80
3F00
ENDCHAR
STARTCHAR 00DA
ENCODING 218
SWIDTH 600 0
DWIDTH 12 0
BBX 10 18 1 0
BITMAP
0700
0E00
1C00
0000
E1C0
E1C0
E1C0
E1C0
E1C0
E1C0
E1C0
E1C0
E1C0
E1C0
F1C0
FFC0
7F80
3F00
ENDCHAR
STARTCHAR 00DB
ENCODING 219
SWIDTH 600 0
DWIDTH 12 0
BBX 9 18 1 0
BITMAP
1C00
3600
7600
0000
E380
E380
E380
E380
E380
E380
E380
E380
E380
E380
E380
FF80
7F00
3E00
ENDCHAR
STARTCHAR 00DC
ENCODING 220
SWIDTH 600 0
DWIDTH 12 0
BBX 10 18 1 0
BITMAP
3B80
3B80
3300
0000
E1C0
E1C0
E1C0
E1C0
E1C0
E1C0
E1C0
E1C0
E1C0
E1C0
F1C0
FFC0
7F80
3F00
ENDCHAR
STARTCHAR 00DD
ENCODING 221
SWIDTH 550 0
DWIDTH 11 0
BBX 9 18 1 0
BITMAP
0600
0C00
1800
0000
E380
E380
E380
E380
E380
E380
FF80
7F00
3E00
1C00
1C00
1C00
1C00
1C00
ENDCHAR
STARTCHAR 00DE
ENCODING 222
SWIDTH 550 0
DWIDTH 11 0
BBX 10 14 1 0
BITMAP
E000
FE00
FF00
FF80
F3C0
E1C0
E1C0
E1C0
EF80
EF80
EE00
E000
E000
E000
ENDCHAR
STARTCHAR 00DF
ENCODING 223
SWIDTH 600 0
DWIDTH 12 0
BBX 12 14 0 0
BITMAP
1F00
3F80
73C0
71C0
F380
F780
F3C0
70E0
7070
7070
7070
77F0
77E0
77C0
ENDCHAR
STARTCHAR 00E0
ENCODING 224
SWIDTH 550 0
DWIDTH 11 0
BBX 10 14 1 0
BITMAP
1C00
0C00
0600
0000
1E00
7F80
7F80
E1C0
E1C0
E1C0
E1C0
7FC0
7FC0
1FC0
ENDCHAR
STARTCHAR 00E1
ENCODING 225
SWIDTH 550 0
DWIDTH 11 0
BBX 10 14 1 0
BITMAP
0700
0E00
1C00
0000
1E00
7F80
7F80
E1C0
E1C0
E1C0
E1C0
7DC0
7DC0
3DC0
ENDCHAR
STARTCHAR 00E2
ENCODING 226
SWIDTH 550 0
DWIDTH 11 0
BBX 10 14 1 0
BITMAP
0E00
1F00
3380
0000
1E00
7F80
7FC0
E1C0
E1C0
E1C0
E1C0
7DC0
7DC0
1DC0
ENDCHAR
STARTCHAR 00E3
ENCODING 227
SWIDTH 550 0
DWIDTH 11 0
BBX 10 14 1 0
BITMAP
1D80
3F80
2300
0000
1E00
7F80
7FC0
E1C0
E1C0
E1C0
E1C0
7DC0
7DC0
1DC0
ENDCHAR
STARTCHAR 00E4
ENCODING 228
SWIDTH 550 0
DWIDTH 11 0
BBX 10 14 1 0
BITMAP
3F00
3F00
3300
0000
1E00
7F80
7F80
E1C0
E1C0
E1C0
E1C0
FDC0
7DC0
3DC0
ENDCHAR
STARTCHAR 00E5
ENCODING 229
SWIDTH 550 0
DWIDTH 11 0
BBX 10 16 1 0
BITMAP
0C00
1200
1200
1200
0C00
0000
1E00
7F80
7F80
E1C0
E1C0
E1C0
E1C0
7DC0
7DC0
3DC0
ENDCHAR
STARTCHAR 00E6
ENCODING 230
SWIDTH 900 0
DWIDTH 18 0
BBX 17 10 1 0
BITMAP
7C7C00
7FFE00
7FFF00
1F9E00
7FB800
E3B380
E78700
FFFF00
FFFE00
787800
ENDCHAR
STARTCHAR 00E7
ENCODING 231
SWIDTH 400 0
DWIDTH 8 0
BBX 6 14 1 -4
BITMAP
3C
7C
FC
E0
E0
E0
E0
FC
7C
3C
10
1C
0C
38
ENDCHAR
STARTCHAR 00E8
ENCODING 232
SWIDTH 550 0
DWIDTH 11 0
BBX 10 14 0 0
BITMAP
1800
0C00
0600
0000
1F00
7F80
7FC0
E380
EF00
EC80
F1C0
7FC0
7F80
1F00
ENDCHAR
STARTCHAR 00E9
ENCODING 233
SWIDTH 550 0
DWIDTH 11 0
BBX 11 14 0 0
BITMAP
0300
0600
0C00
0000
1F00
3F80
7FC0
F3C0
E700
E680
F0E0
7FC0
3F80
1F00
ENDCHAR
STARTCHAR 00EA
ENCODING 234
SWIDTH 550 0
DWIDTH 11 0
BBX 10 14 0 0
BITMAP
0E00
1B00
3B80
0000
1F00
3F80
7FC0
E380
E700
E480
F0C0
7FC0
3F80
1F00
ENDCHAR
STARTCHAR 00EB
ENCODING 235
SWIDTH 550 0
DWIDTH 11 0
BBX 10 14 0 0
BITMAP
3B80
3B80
3300
0000
1F00
3F80
7FC0
E780
EF00
EC80
F1C0
7FC0
3F80
1F00
ENDCHAR
STARTCHAR 00EC
ENCODING 236
SWIDTH 200 0
DWIDTH 4 0
BBX 4 14 0 0
BITMAP
E0
60
30
00
70
70
70
70
70
70
70
70
70
70
ENDCHAR
STARTCHAR 00ED
ENCODING 237
SWIDTH 200 0
DWIDTH 4 0
BBX 4 14 1 0
BITMAP
70
60
C0
00
E0
E0
E0
E0
E0
E0
E0
E0
E0
E0
ENDCHAR
STARTCHAR 00EE
ENCODING 238
SWIDTH 200 0
DWIDTH 4 0
BBX 7 14 -1 0
BITMAP
38
6C
E6
00
38
38
38
38
38
38
38
38
38
38
ENDCHAR
STARTCHAR 00EF
ENCODING 239
SWIDTH 200 0
DWIDTH 4 0
BBX 7 14 -1 0
BITMAP
EE
EE
C6
00
38
38
38
38
38
38
38
38
38
38
ENDCHAR
STARTCHAR 00F0
ENCODING 240
SWIDTH 550 0
DWIDTH 11 0
BBX 10 14 1 0
BITMAP
0500
0F00
1F00
0300
1F80
7D80
7DC0
E1C0
E1C0
E1C0
E3C0
7F80
7F00
1E00
ENDCHAR
STARTCHAR 00F1
ENCODING 241
SWIDTH 500 0
DWIDTH 10 0
BBX 9 14 1 0
BITMAP
3900
7F00
4600
0000
3E00
7F00
FF80
E380
E380
E380
E380
E380
E380
E380
ENDCHAR
STARTCHAR 00F2
ENCODING 242
SWIDTH 550 0
DWIDTH 11 0
BBX 10 14 1 0
BITMAP
3800
1C00
0E00
0000
1E00
7F80
7F80
E1C0
E1C0
E1C0
E1C0
7F80
7F80
1E00
ENDCHAR
STARTCHAR 00F3
ENCODING 243
SWIDTH 550 0
DWIDTH 11 0
BBX 10 14 1 0
BITMAP
0700
0C00
1800
0000
1E00
7F80
7F80
E1C0
E1C0
E1C0
E1C0
7F80
7F80
1E00
ENDCHAR
STARTCHAR 00F4
ENCODING 244
SWIDTH 550 0
DWIDTH 11 0
BBX 11 14 1 0
BITMAP
0E00
1B00
3380
0000
1F00
7F80
7FC0
E0E0
E0E0
E0E0
E0E0
7FC0
7F80
1F00
ENDCHAR
STARTCHAR 00F5
ENCODING 245
SWIDTH 550 0
DWIDTH 11 0
BBX 10 14 1 0
BITMAP
3900
7F00
6600
0000
1E00
7F80
7F80
E1C0
E1C0
E1C0
E1C0
7F80
7F80
1E00
ENDCHAR
STARTCHAR 00F6
ENCODING 246
SWIDTH 550 0
DWIDTH 11 0
BBX 10 14 1 0
BITMAP
3F00
3F00
3300
0000
1E00
7F80
7F80
E1C0
E1C0
E1C0
E1C0
7F80
7F80
1E00
ENDCHAR
STARTCHAR 00F7
ENCODING 247
SWIDTH 600 0
DWIDTH 12 0
BBX 9 12 1 -1
BITMAP
0800
1C00
1C00
0800
0000
FF80
FF80
0000
0800
1C00
1C00
0800
ENDCHAR
STARTCHAR 00F8
ENCODING 248
SWIDTH 550 0
DWIDTH 11 0
BBX 10 10 1 0
BITMAP
1FC0
7F80
7F80
E7C0
EDC0
E9C0
F9C0
7F80
7F80
DE00
ENDCHAR
STARTCHAR 00F9
ENCODING 249
SWIDTH 500 0
DWIDTH 10 0
BBX 9 14 1 0
BITMAP
3800
1800
0C00
0000
E380
E380
E380
E380
E380
E380
E380
FF80
7F00
3E00
ENDCHAR
STARTCHAR 00FA
ENCODING 250
SWIDTH 500 0
DWIDTH 10 0
BBX 9 14 1 0
BITMAP
0F00
0C00
1800
0000
E380
E380
E380
E380
E380
E380
E380
FF80
7F00
3E00
ENDCHAR
STARTCHAR 00FB
ENCODING 251
SWIDTH 500 0
DWIDTH 10 0
BBX 9 14 1 0
BITMAP
1C00
3600
6700
0000
E380
E380
E380
E380
E380
E380
E380
FF80
7F00
3E00
ENDCHAR
STARTCHAR 00FC
ENCODING 252
SWIDTH 500 0
DWIDTH 10 0
BBX 8 14 1 0
BITMAP
7E
7E
66
00
E7
E7
E7
E7
E7
E7
E7
FF
FE
3C
ENDCHAR
STARTCHAR 00FD
ENCODING 253
SWIDTH 500 0
DWIDTH 10 0
BBX 9 18 1 -4
BITMAP
0F00
0C00
1800
0000
E380
E380
E380
E380
E380
E380
E380
F780
7F00
3E00
1C00
1C00
1C00
1C00
ENDCHAR
STARTCHAR 00FE
ENCODING 254
SWIDTH 550 0
DWIDTH 11 0
BBX 10 18 1 -4
BITMAP
E000
E000
E000
E000
FE00
FF80
FF80
E1C0
E1C0
E1C0
E1C0
EF80
EF80
EE00
E000
E000
E000
E000
ENDCHAR
STARTCHAR 00FF
ENCODING 255
SWIDTH 500 0
DWIDTH 10 0
BBX 9 18 1 -4
BITMAP
7700
7700
6600
0000
E380
E380
E380
E380
E380
E380
E380
F780
7F00
3E00
1C00
1C00
1C00
1C00
ENDCHAR
STARTCHAR 0131
ENCODING 305
SWIDTH 200 0
DWIDTH 4 0
BBX 3 10 1 0
BITMAP
E0
E0
E0
E0
E0
E0
E0
E0
E0
E0
ENDCHAR
STARTCHAR 0141
ENCODING 321
SWIDTH 400 0
DWIDTH 8 0
BBX 8 14 0 0
BITMAP
70
70
70
70
78
F8
F0
F0
70
70
70
7F
3F
1F
ENDCHAR
STARTCHAR 0142
ENCODING 322
SWIDTH 200 0
DWIDTH 4 0
BBX 5 14 0 0
BITMAP
70
70
70
70
70
78
F8
F0
70
70
70
70
70
70
ENDCHAR
STARTCHAR 0152
ENCODING 338
SWIDTH 1000 0
DWIDTH 20 0
BBX 19 14 0 0
BITMAP
07C1E0
1FE3E0
3FF7E0
787E00
703C00
E01FE0
E01FE0
E01FE0
E01C00
703E00
787F00
3FF7E0
1FE3E0
0FC1E0
ENDCHAR
STARTCHAR 0153
ENCODING 339
SWIDTH 950 0
DWIDTH 19 0
BBX 17 10 1 0
BITMAP
1E3C00
7FFF00
7FFF80
E1C700
E1DE00
E1D800
E1C380
7FFF80
7F7F00
1E3E00
ENDCHAR
STARTCHAR 0160
ENCODING 352
SWIDTH 500 0
DWIDTH 10 0
BBX 9 18 1 0
BITMAP
7300
3600
1C00
0000
3F80
7F80
FF80
E000
F000
7800
7E00
1F00
0F80
0380
0380
FF80
FF00
FE00
ENDCHAR
STARTCHAR 0161
ENCODING 353
SWIDTH 400 0
DWIDTH 8 0
BBX 7 14 0 0
BITMAP
EE
6C
38
00
7E
FE
E0
E0
78
3C
0E
0E
FC
FC
ENDCHAR
STARTCHAR 0178
ENCODING 376
SWIDTH 550 0
DWIDTH 11 0
BBX 9 18 1 0
BITMAP
7700
7700
3300
0000
E380
E380
E380
E380
E380
E380
FF80
7F00
3E00
1C00
1C00
1C00
1C00
1C00
ENDCHAR
STARTCHAR 017D
ENCODING 381
SWIDTH 500 0
DWIDTH 10 0
BBX 9 18 0 0
BITMAP
7700
3600
1C00
0000
FF00
FF80
FF80
0700
0F00
1E00
1C00
3C00
3800
7000
7000
FF80
FF80
FF80
ENDCHAR
STARTCHAR 017E
ENCODING 382
SWIDTH 450 0
DWIDTH 9 0
BBX 8 14 0 0
BITMAP
77
36
1C
00
7F
7F
7F
0E
1C
3C
78
FF
FF
FF
ENDCHAR
STARTCHAR 0192
ENCODING 402
SWIDTH 550 0
DWIDTH 11 0
BBX 11 18 0 -4
BITMAP
01E0
03E0
07E0
07E0
07E0
3FE0
3FE0
3FE0
0FC0
0FC0
0FC0
0FC0
0FC0
1FC0
1F80
FF80
FF00
FC00
ENDCHAR
STARTCHAR 02C6
ENCODING 710
SWIDTH 200 0
DWIDTH 4 0
BBX 7 3 -1 11
BITMAP
38
6C
EE
ENDCHAR
STARTCHAR 02C7
ENCODING 711
SWIDTH 200 0
DWIDTH 4 0
BBX 7 3 -1 11
BITMAP
EE
6C
38
ENDCHAR
STARTCHAR 02D8
ENCODING 728
SWIDTH 200 0
DWIDTH 4 0
BBX 7 3 -1 11
BITMAP
C6
7C
38
ENDCHAR
STARTCHAR 02D9
ENCODING 729
SWIDTH 200 0
DWIDTH 4 0
BBX 3 3 1 11
BITMAP
E0
E0
C0
ENDCHAR
STARTCHAR 02DA
ENCODING 730
SWIDTH 200 0
DWIDTH 4 0
BBX 4 5 0 11
BITMAP
60
90
90
90
60
ENDCHAR
STARTCHAR 02DB
ENCODING 731
SWIDTH 200 0
DWIDTH 4 0
BBX 5 4 -1 -4
BITMAP
30
40
C0
78
ENDCHAR
STARTCHAR 02DC
ENCODING 732
SWIDTH 200 0
DWIDTH 4 0
BBX 7 3 -1 11
BITMAP
72
FE
8C
ENDCHAR
STARTCHAR 02DD
ENCODING 733
SWIDTH 200 0
DWIDTH 4 0
BBX 8 3 -2 11
BITMAP
33
66
CC
ENDCHAR
STARTCHAR 2013
ENCODING 8211
SWIDTH 500 0
DWIDTH 10 0
BBX 10 2 0 4
BITMAP
FFC0
FFC0
ENDCHAR
STARTCHAR 2014
ENCODING 8212
SWIDTH 1000 0
DWIDTH 20 0
BBX 20 2 0 4
BITMAP
FFFFF0
FFFFF0
ENDCHAR
STARTCHAR 2018
ENCODING 8216
SWIDTH 200 0
DWIDTH 4 0
BBX 3 5 1 9
BITMAP
E0
E0
60
60
60
ENDCHAR
STARTCHAR 2019
ENCODING 8217
SWIDTH 200 0
DWIDTH 4 0
BBX 3 5 1 9
BITMAP
E0
E0
E0
C0
C0
ENDCHAR
STARTCHAR 201A
ENCODING 8218
SWIDTH 200 0
DWIDTH 4 0
BBX 3 5 1 -2
BITMAP
E0
E0
E0
C0
C0
ENDCHAR
STARTCHAR 201C
ENCODING 8220
SWIDTH 400 0
DWIDTH 8 0
BBX 7 5 1 9
BITMAP
EE
EE
66
66
66
ENDCHAR
STARTCHAR 201D
ENCODING 8221
SWIDTH 400 0
DWIDTH 8 0
BBX 7 5 0 9
BITMAP
6E
EE
EE
CC
CC
ENDCHAR
STARTCHAR 201E
ENCODING 8222
SWIDTH 400 0
DWIDTH 8 0
BBX 7 5 0 -2
BITMAP
6E
EE
EE
EC
CC
ENDCHAR
STARTCHAR 2020
ENCODING 8224
SWIDTH 500 0
DWIDTH 10 0
BBX 8 17 1 -3
BITMAP
18
18
18
91
FF
D3
18
18
18
18
18
18
18
18
18
10
10
ENDCHAR
STARTCHAR 2021
ENCODING 8225
SWIDTH 500 0
DWIDTH 10 0
BBX 8 16 1 -2
BITMAP
18
18
18
91
FF
93
10
18
18
10
91
FF
D3
18
18
18
ENDCHAR
STARTCHAR 2022
ENCODING 8226
SWIDTH 500 0
DWIDTH 10 0
BBX 7 7 2 4
BITMAP
38
7C
FE
FE
FE
7C
38
ENDCHAR
STARTCHAR 2026
ENCODING 8230
SWIDTH 1000 0
DWIDTH 20 0
BBX 16 3 2 1
BITMAP
E387
E387
E387
ENDCHAR
STARTCHAR 2030
ENCODING 8240
SWIDTH 1000 0
DWIDTH 20 0
BBX 20 14 0 0
BITMAP
783000
7C2000
CC4000
CCC000
7C8000
790000
030000
0660C0
04F1E0
099B30
199B30
119B30
20F1E0
6060C0
ENDCHAR
STARTCHAR 2039
ENCODING 8249
SWIDTH 350 0
DWIDTH 7 0
BBX 5 6 1 2
BITMAP
30
70
E0
E0
70
38
ENDCHAR
STARTCHAR 203A
ENCODING 8250
SWIDTH 350 0
DWIDTH 7 0
BBX 5 6 1 2
BITMAP
E0
70
38
38
70
60
ENDCHAR
STARTCHAR 2044
ENCODING 8260
SWIDTH 150 0
DWIDTH 3 0
BBX 10 14 -3 0
BITMAP
00C0
0180
0180
0300
0200
0600
0C00
0C00
1800
1000
3000
6000
6000
C000
ENDCHAR
STARTCHAR 2122
ENCODING 8482
SWIDTH 1000 0
DWIDTH 20 0
BBX 18 8 1 6
BITMAP
FCE1C0
FCF3C0
30F3C0
30F3C0
30DEC0
30DEC0
30CCC0
30CCC0
ENDCHAR
STARTCHAR 2212
ENCODING 8722
SWIDTH 600 0
DWIDTH 12 0
BBX 10 2 1 3
BITMAP
FFC0
FFC0
ENDCHAR
STARTCHAR FB01
ENCODING 64257
SWIDTH 500 0
DWIDTH 10 0
BBX 8 14 1 0
BITMAP
3F
7F
FA
E0
FF
FF
FF
E7
E7
E7
E7
E7
E7
E7
ENDCHAR
STARTCHAR FB02
ENCODING 64258
SWIDTH 500 0
DWIDTH 10 0
BBX 8 14 1 0
BITMAP
37
77
F7
E7
F7
F7
F7
E7
E7
E7
E7
E7
E7
E7
ENDCHAR
ENDFONT
